<svg width="262" height="265" viewBox="0 0 262 265" fill="none" xmlns="http://www.w3.org/2000/svg">
<path d="M216.772 24.8541L177.146 0.0110016L137.572 24.8541V74.5399L177.146 99.4396L216.772 74.5399V24.8541Z" fill="#C3CBD9"/>
<path d="M79.8221 107.14L40.196 82.2966L0.622101 107.14V156.826L40.196 181.725L79.8221 156.826V107.14Z" fill="#C3CBD9"/>
<path d="M124.372 189.426L84.746 164.582L45.1721 189.426V239.111L84.746 264.011L124.372 239.111V189.426Z" fill="#C3CBD9"/>
<path d="M215.122 189.426L175.496 164.582L135.922 189.426V239.111L175.496 264.011L215.122 239.111V189.426Z" fill="#C3CBD9"/>
<path d="M261.322 107.14L221.696 82.2966L182.122 107.14V156.826L221.696 181.725L261.322 156.826V107.14Z" fill="#C3CBD9"/>
<path d="M126.022 24.8541L86.396 0.0110016L46.8221 24.8541V74.5399L86.396 99.4396L126.022 74.5399V24.8541Z" fill="#C3CBD9"/>
<path d="M170.572 107.14L130.946 82.2966L91.3721 107.14V156.826L130.946 181.725L170.572 156.826V107.14Z" fill="#C3CBD9"/>
<path d="M214.878 136.9C214.878 88.7724 177.295 49.7253 130.972 49.7253C84.6491 49.7253 47.0663 88.7724 47.0663 136.9C47.0663 185.028 84.6491 224.075 130.972 224.075C177.295 224.075 214.878 185.028 214.878 136.9Z" fill="#29292B"/>
<path d="M172.925 100.577L114.191 173.223L89.0192 144.165" stroke="#F2F2F2" stroke-width="15" stroke-linecap="round" stroke-linejoin="round"/>
</svg>
